<?xml version="1.0" encoding="iso-8859-1"?>
<!-- Generator: Adobe Illustrator 19.0.0, SVG Export Plug-In . SVG Version: 6.00 Build 0)  -->
<svg version="1.1" id="Layer_1" xmlns="http://www.w3.org/2000/svg" xmlns:xlink="http://www.w3.org/1999/xlink" x="0px" y="0px"
	 viewBox="0 0 512 512" style="enable-background:new 0 0 512 512;" xml:space="preserve">
<g>
	<path style="fill:#387896;" d="M208.752,93.164h279.493c12.861,0,23.291-10.428,23.291-23.291s-10.43-23.291-23.291-23.291H208.752
		c-12.864,0-23.291,10.428-23.291,23.291S195.887,93.164,208.752,93.164z"/>
	<path style="fill:#387896;" d="M488.245,419.239H208.752c-12.864,0-23.291,10.428-23.291,23.291s10.427,23.291,23.291,23.291
		h279.493c12.861,0,23.291-10.428,23.291-23.291S501.108,419.239,488.245,419.239z"/>
	<path style="fill:#387896;" d="M488.245,232.911H208.752c-12.864,0-23.291,10.428-23.291,23.291
		c0,12.863,10.427,23.291,23.291,23.291h279.493c12.861,0,23.291-10.428,23.291-23.291
		C511.536,243.339,501.108,232.911,488.245,232.911z"/>
</g>
<g>
	<path style="fill:#275366;" d="M511.536,69.873c0-12.863-10.43-23.291-23.291-23.291H348.498v46.582h139.746
		C501.108,93.164,511.536,82.736,511.536,69.873z"/>
	<path style="fill:#275366;" d="M488.245,465.822c12.861,0,23.291-10.428,23.291-23.291s-10.43-23.291-23.291-23.291H348.498v46.582
		H488.245z"/>
	<path style="fill:#275366;" d="M511.536,256.202c0-12.863-10.43-23.291-23.291-23.291H348.498v46.582h139.746
		C501.108,279.493,511.536,269.065,511.536,256.202z"/>
</g>
<g>
	<path style="fill:#E68842;" d="M116.92,512H23.755c-12.861,0-23.291-10.427-23.291-23.291v-93.164
		c0-12.861,10.43-23.291,23.291-23.291h93.164c12.864,0,23.291,10.43,23.291,23.291v93.164C140.211,501.573,129.784,512,116.92,512z
		"/>
	<path style="fill:#E68842;" d="M140.211,302.38v-93.164c0-12.861-10.427-23.291-23.291-23.291H23.755
		c-12.861,0-23.291,10.43-23.291,23.291v93.164c0,12.864,10.43,23.291,23.291,23.291h93.164
		C129.784,325.671,140.211,315.245,140.211,302.38z M93.629,279.089H47.046v-46.582h46.582V279.089z"/>
</g>
<g>
	<path style="fill:#DD4C42;" d="M116.92,372.254c12.864,0,23.291,10.43,23.291,23.291v93.164c0,12.864-10.427,23.291-23.291,23.291
		H70.337V372.254L116.92,372.254L116.92,372.254z"/>
	<path style="fill:#DD4C42;" d="M93.629,279.089v-46.582H70.337v-46.582h46.582c12.864,0,23.291,10.43,23.291,23.291v93.164
		c0,12.864-10.427,23.291-23.291,23.291H70.337v-46.582H93.629z"/>
</g>
<path style="fill:#E68842;" d="M140.211,116.455V23.291C140.211,10.428,129.784,0,116.92,0H23.755
	C10.894,0,0.464,10.428,0.464,23.291v93.164c0,12.863,10.43,23.291,23.291,23.291h93.164
	C129.784,139.746,140.211,129.318,140.211,116.455z M93.629,93.164H47.046V46.582h46.582V93.164z"/>
<path style="fill:#DD4C42;" d="M93.629,93.164V46.582H70.337V0h46.582c12.864,0,23.291,10.428,23.291,23.291v93.164
	c0,12.863-10.427,23.291-23.291,23.291H70.337V93.164H93.629z"/>
<g>
</g>
<g>
</g>
<g>
</g>
<g>
</g>
<g>
</g>
<g>
</g>
<g>
</g>
<g>
</g>
<g>
</g>
<g>
</g>
<g>
</g>
<g>
</g>
<g>
</g>
<g>
</g>
<g>
</g>
</svg>
