<?xml version="1.0" encoding="iso-8859-1"?>
<!-- Generator: Adobe Illustrator 19.0.0, SVG Export Plug-In . SVG Version: 6.00 Build 0)  -->
<svg version="1.1" id="Capa_1" xmlns="http://www.w3.org/2000/svg" xmlns:xlink="http://www.w3.org/1999/xlink" x="0px" y="0px"
	 viewBox="0 0 480 480" style="enable-background:new 0 0 480 480;" xml:space="preserve">
<linearGradient id="SVGID_1_" gradientUnits="userSpaceOnUse" x1="-19.1133" y1="484.3732" x2="-34.6133" y2="457.5302" gradientTransform="matrix(8 0 0 -8 455 4151.7588)">
	<stop  offset="0" style="stop-color:#40E0D0"/>
	<stop  offset="0.514" style="stop-color:#FF8C00"/>
	<stop  offset="1" style="stop-color:#FF0080"/>
</linearGradient>
<path style="fill:url(#SVGID_1_);" d="M472,376.307H8c-4.8,0-8,3.2-8,8s3.2,8,8,8h464c4.8,0,8-3.2,8-8S476.8,376.307,472,376.307z"
	/>
<linearGradient id="SVGID_2_" gradientUnits="userSpaceOnUse" x1="-16.1849" y1="501.8315" x2="-37.744" y2="464.5026" gradientTransform="matrix(8 0 0 -8 455 4151.7588)">
	<stop  offset="0" style="stop-color:#40E0D0"/>
	<stop  offset="0.514" style="stop-color:#FF8C00"/>
	<stop  offset="1" style="stop-color:#FF0080"/>
</linearGradient>
<path style="fill:url(#SVGID_2_);" d="M24,360.307c3.2,0,6.4-1.6,7.2-4.8l40.8-101.6l32.8,84.8c0.8,3.2,4,4.8,7.2,4.8
	s6.4-2.4,7.2-4.8l88.8-222.4l72,159.2c1.6,4,6.4,5.6,10.4,4c1.6-0.8,3.2-2.4,4-4l40.8-102.4l40,87.2c1.6,4,6.4,5.6,10.4,4
	c0.8-0.8,2.4-1.6,3.2-2.4l32.8-40l26.4,39.2c2.4,4,7.2,4.8,11.2,2.4s4.8-7.2,2.4-11.2l-32-48c-1.6-2.4-4-3.2-6.4-3.2
	s-4.8,0.8-6.4,3.2l-32,38.4l-42.4-92.8c-0.8-4-3.2-5.6-6.4-5.6s-6.4,2.4-7.2,4.8l-40.8,102.4l-72-159.2c-1.6-4-6.4-5.6-10.4-4
	c-1.6,0.8-3.2,2.4-4,4l-89.6,222.4l-32.8-84.8c-0.8-3.2-4-5.6-7.2-5.6l0,0c-3.2,0-6.4,1.6-7.2,4.8l-48,120c-1.6,4,0,8.8,4.8,10.4
	l0,0C21.6,360.307,23.2,360.307,24,360.307z"/>
<g>
</g>
<g>
</g>
<g>
</g>
<g>
</g>
<g>
</g>
<g>
</g>
<g>
</g>
<g>
</g>
<g>
</g>
<g>
</g>
<g>
</g>
<g>
</g>
<g>
</g>
<g>
</g>
<g>
</g>
</svg>
